<?xml version="1.0" standalone="no"?>
<!DOCTYPE svg PUBLIC "-//W3C//DTD SVG 20010904//EN"
 "http://www.w3.org/TR/2001/REC-SVG-20010904/DTD/svg10.dtd">
<svg version="1.0" xmlns="http://www.w3.org/2000/svg"
 width="859.000000pt" height="188.000000pt" viewBox="0 0 859.000000 188.000000"
 preserveAspectRatio="xMidYMid meet">

<g transform="translate(0.000000,188.000000) scale(0.100000,-0.100000)"
fill="#000000" stroke="none">
<path d="M35 1845 l-25 -24 0 -880 0 -879 31 -26 31 -26 860 0 860 0 29 29 29
29 0 870 0 870 -26 31 -26 31 -869 0 -870 0 -24 -25z m1751 -28 c31 -27 35
-68 9 -97 -26 -28 -50 -33 -84 -16 -52 27 -51 105 2 126 34 14 44 12 73 -13z
m-957 -668 c56 -20 70 -91 26 -134 -24 -25 -25 -25 -225 -25 l-200 0 0 -110 0
-110 190 0 c177 0 191 -1 210 -20 22 -22 27 -78 10 -110 -16 -31 -74 -40 -247
-40 l-163 0 0 -155 c0 -211 -15 -245 -110 -245 -33 0 -48 6 -71 29 l-29 29 0
424 0 425 23 20 c12 11 29 23 37 26 30 11 516 7 549 -4z m338 -13 l28 -24 3
-366 3 -365 200 -3 c197 -3 201 -3 220 -27 25 -31 25 -95 0 -120 -28 -28 -80
-33 -344 -29 l-239 3 -24 28 -24 28 0 422 0 421 27 28 c36 38 108 40 150 4z"/>
<path d="M1706 1804 c-34 -33 -9 -94 38 -94 28 0 56 29 56 57 0 44 -63 69 -94
37z m61 -45 l0 -42 -18 24 c-15 20 -19 21 -19 7 0 -10 -4 -18 -10 -18 -5 0
-10 16 -10 35 0 32 3 35 29 35 27 0 28 -2 28 -41z"/>
<path d="M1730 1780 c0 -5 5 -10 10 -10 6 0 10 5 10 10 0 6 -4 10 -10 10 -5 0
-10 -4 -10 -10z"/>
<path d="M2032 1847 c-22 -23 -22 -27 -22 -409 0 -373 1 -386 20 -411 40 -50
142 -40 155 16 3 12 6 90 8 172 l2 150 178 5 c173 5 179 6 198 29 24 30 24 62
0 92 -19 23 -24 24 -200 27 l-181 3 0 100 0 99 174 0 c223 0 246 8 246 82 0
66 -9 68 -300 68 -255 0 -257 0 -278 -23z"/>
<path d="M2734 1858 c-50 -24 -57 -96 -15 -139 63 -62 181 -21 181 63 -1 37
-14 59 -47 76 -26 14 -90 14 -119 0z"/>
<path d="M2750 1607 c-48 -24 -50 -43 -48 -314 3 -248 3 -253 26 -275 32 -32
102 -32 134 0 23 22 23 25 23 288 l0 266 -28 24 c-31 26 -69 30 -107 11z"/>
<path d="M3090 1613 c-8 -3 -23 -12 -32 -21 -16 -14 -18 -41 -18 -287 0 -264
1 -272 21 -291 14 -13 36 -19 66 -19 37 0 49 5 69 28 23 27 24 34 24 178 0
205 18 242 127 255 86 10 111 22 123 58 38 116 -114 145 -217 41 l-43 -42 0
29 c0 55 -62 92 -120 71z"/>
<path d="M3580 1607 c-48 -24 -50 -43 -48 -314 3 -248 3 -253 26 -275 32 -32
102 -32 134 0 22 21 23 32 28 205 5 196 10 216 60 242 55 28 112 11 130 -38 5
-16 10 -108 10 -204 0 -96 4 -183 10 -193 12 -23 73 -44 106 -36 13 4 33 15
44 26 18 18 20 34 20 178 0 172 8 217 44 251 34 32 95 38 126 13 25 -20 25
-22 30 -221 5 -192 6 -201 28 -223 35 -35 106 -32 138 5 23 27 24 32 24 207 0
258 -19 322 -110 368 -84 42 -190 25 -257 -43 l-43 -42 -20 34 c-26 44 -88 72
-158 73 -64 0 -116 -20 -159 -62 l-33 -32 0 26 c0 53 -73 84 -130 55z"/>
<path d="M4773 1605 c-118 -33 -155 -68 -139 -130 11 -42 44 -47 130 -19 42
13 101 24 131 24 46 0 56 -4 74 -26 12 -15 21 -41 21 -60 l0 -34 -62 0 c-140
0 -261 -35 -294 -85 -10 -15 -19 -50 -22 -79 -9 -109 68 -190 193 -203 65 -7
115 9 154 49 l30 31 10 -24 c18 -47 71 -70 120 -49 45 18 51 45 51 228 0 245
-24 318 -119 364 -59 28 -200 35 -278 13z m217 -365 c0 -70 -49 -120 -117
-120 -57 0 -85 27 -81 78 4 49 47 72 136 72 l62 0 0 -30z"/>
<path d="M2064 881 c-54 -23 -54 -25 -54 -437 0 -361 1 -383 19 -405 19 -24
20 -24 268 -27 270 -2 289 1 306 51 14 44 -7 85 -52 97 -20 5 -107 10 -193 10
l-158 0 0 329 c0 328 0 330 -22 356 -25 28 -79 40 -114 26z"/>
<path d="M3414 876 c-17 -8 -34 -21 -38 -31 -11 -28 -7 -784 4 -805 6 -11 28
-24 49 -31 49 -14 89 3 111 47 l16 31 38 -33 c67 -58 179 -68 265 -25 147 76
196 318 98 482 -43 72 -104 109 -190 116 -79 7 -127 -8 -178 -54 l-39 -35 0
145 c0 80 -3 153 -6 162 -8 19 -55 45 -81 45 -10 -1 -32 -7 -49 -14z m357
-412 c37 -33 52 -75 52 -145 0 -119 -57 -185 -151 -176 -77 8 -122 72 -122
171 0 72 25 133 64 158 40 25 125 21 157 -8z"/>
<path d="M6063 871 l-33 -21 0 -396 c0 -242 4 -402 10 -414 13 -24 70 -43 104
-34 15 3 35 18 46 31 19 25 20 42 20 409 0 383 0 383 -22 409 -31 35 -83 42
-125 16z"/>
<path d="M8493 820 c-44 -18 -56 -77 -23 -110 41 -41 120 -12 120 44 0 47 -53
83 -97 66z m69 -27 c22 -20 23 -42 2 -71 -29 -42 -104 -16 -104 37 0 44 67 66
102 34z"/>
<path d="M8491 753 c1 -21 3 -30 6 -20 5 21 22 22 29 2 4 -8 11 -15 16 -15 7
0 6 5 -1 13 -7 10 -7 17 0 24 16 16 2 33 -27 33 -21 0 -24 -4 -23 -37z m39 17
c0 -5 -7 -10 -15 -10 -8 0 -15 5 -15 10 0 6 7 10 15 10 8 0 15 -4 15 -10z"/>
<path d="M8135 775 c-22 -21 -25 -33 -25 -90 l0 -65 -29 0 c-36 0 -83 -17 -93
-33 -4 -7 -8 -26 -8 -44 0 -41 30 -63 87 -63 l43 0 0 -149 c0 -85 5 -162 12
-182 28 -84 87 -126 195 -139 79 -10 130 3 145 35 24 53 -15 95 -86 95 -19 0
-44 9 -57 19 -23 19 -24 24 -24 168 l0 148 66 5 c80 6 99 20 99 70 0 50 -17
62 -100 68 l-70 5 0 68 c0 61 -3 70 -26 88 -38 30 -98 28 -129 -4z"/>
<path d="M2835 617 c-114 -29 -157 -69 -141 -130 11 -46 37 -51 127 -22 145
46 215 30 226 -51 l5 -41 -108 -6 c-188 -10 -261 -48 -271 -141 -11 -94 21
-157 99 -197 89 -45 199 -31 253 32 16 20 25 25 25 15 0 -8 11 -27 24 -43 20
-23 32 -28 67 -27 75 2 79 14 79 244 0 257 -14 300 -115 353 -49 26 -194 33
-270 14z m215 -357 c0 -64 -59 -130 -117 -130 -46 0 -68 13 -83 50 -11 28 -11
34 7 58 24 32 48 40 131 41 56 1 62 -1 62 -19z"/>
<path d="M4292 612 c-71 -26 -121 -68 -157 -133 -28 -51 -30 -60 -30 -164 0
-94 3 -116 22 -151 31 -59 79 -103 143 -133 46 -22 70 -26 145 -26 82 0 96 3
158 33 126 62 184 187 157 341 -27 158 -127 241 -300 248 -65 3 -98 -1 -138
-15z m203 -144 c38 -30 55 -76 55 -153 0 -110 -35 -161 -117 -172 -102 -14
-159 60 -151 194 7 110 46 153 139 153 33 0 55 -6 74 -22z"/>
<path d="M4900 618 c-46 -25 -50 -46 -50 -300 0 -133 4 -248 10 -263 20 -53
117 -67 157 -23 15 17 19 45 23 187 7 219 14 232 145 250 84 12 105 30 105 87
0 36 -5 47 -25 60 -51 33 -174 -6 -214 -68 l-21 -33 0 31 c0 18 -8 41 -17 53
-22 27 -80 36 -113 19z"/>
<path d="M5477 612 c-92 -25 -121 -48 -125 -100 -3 -34 1 -43 22 -57 24 -16
29 -15 103 9 80 27 160 33 193 16 18 -10 40 -59 40 -90 0 -15 -15 -18 -107
-23 -219 -12 -285 -61 -274 -202 8 -90 108 -165 220 -165 47 0 109 29 136 64
21 26 25 28 25 11 1 -49 61 -83 117 -64 18 6 38 19 43 29 13 24 13 384 0 431
-16 56 -51 102 -100 129 -61 33 -194 38 -293 12z m233 -352 c0 -34 -26 -85
-55 -108 -78 -62 -194 16 -135 90 23 30 39 35 128 37 56 1 62 -1 62 -19z"/>
<path d="M6725 618 c-44 -24 -45 -30 -45 -301 0 -152 4 -266 10 -277 5 -10 26
-24 45 -30 42 -14 100 1 115 30 6 10 10 86 10 168 0 180 4 205 42 242 60 61
157 46 177 -27 6 -21 11 -111 11 -201 0 -90 4 -172 10 -182 12 -23 73 -44 102
-35 13 4 33 17 46 28 21 20 22 26 22 216 0 210 -7 256 -47 310 -68 89 -233 96
-324 14 -29 -27 -39 -31 -39 -18 0 9 -13 30 -29 46 -31 31 -70 37 -106 17z"/>
<path d="M7600 621 c-90 -28 -146 -77 -186 -165 -22 -49 -27 -74 -27 -140 0
-136 51 -224 160 -278 62 -30 75 -33 158 -32 96 0 188 27 226 65 36 36 17 119
-26 119 -8 0 -44 -11 -81 -25 -138 -52 -232 -20 -258 88 l-6 27 184 0 c222 0
222 0 212 94 -12 117 -78 208 -175 241 -47 16 -138 19 -181 6z m152 -132 c21
-11 48 -66 48 -99 0 -19 -6 -20 -121 -20 -116 0 -120 1 -115 20 3 11 8 29 12
40 10 37 62 70 110 70 25 0 54 -5 66 -11z"/>
<path d="M6375 187 c-20 -16 -28 -35 -32 -68 -4 -38 -1 -50 21 -76 31 -37 75
-48 121 -29 67 28 83 119 30 172 -33 33 -103 33 -140 1z"/>
</g>
</svg>
