<?xml version="1.0" standalone="no"?>
<!DOCTYPE svg PUBLIC "-//W3C//DTD SVG 20010904//EN"
 "http://www.w3.org/TR/2001/REC-SVG-20010904/DTD/svg10.dtd">
<svg version="1.0" xmlns="http://www.w3.org/2000/svg"
 width="1344.000000pt" height="768.000000pt" viewBox="0 0 1344.000000 768.000000"
 preserveAspectRatio="xMidYMid meet">

<g transform="translate(0.000000,768.000000) scale(0.100000,-0.100000)"
fill="#000000" stroke="none">
<path d="M6204 5126 c-115 -26 -200 -81 -252 -164 -47 -72 -62 -146 -62 -299
l0 -133 -95 0 -95 0 0 -125 0 -125 95 0 95 0 0 -495 0 -495 160 0 160 0 0 495
0 495 208 0 207 -1 223 -483 c122 -267 222 -494 222 -505 0 -61 -131 -277
-193 -319 -67 -45 -150 -54 -247 -26 -106 30 -93 39 -130 -86 -19 -68 -29
-115 -23 -121 22 -22 207 -59 292 -59 184 0 310 62 418 204 91 121 147 258
552 1354 56 150 101 277 101 282 0 6 -62 10 -158 10 l-157 0 -145 -435 c-80
-239 -147 -435 -150 -435 -4 0 -221 492 -356 808 l-27 62 -318 0 -319 0 -1 28
c-4 96 5 231 17 257 29 62 113 81 233 53 28 -6 54 -8 58 -5 9 10 64 220 58
225 -2 3 -35 13 -72 24 -91 25 -222 31 -299 14z"/>
<path d="M8349 4535 c-170 -42 -315 -156 -392 -311 -47 -93 -61 -167 -61 -319
0 -152 17 -231 71 -340 38 -75 164 -195 244 -233 172 -82 424 -83 591 -3 167
80 284 233 319 416 15 79 12 291 -6 360 -55 215 -209 371 -421 425 -91 24
-258 26 -345 5z m280 -261 c23 -9 61 -38 86 -66 60 -67 86 -140 92 -258 11
-202 -47 -337 -171 -403 -58 -31 -184 -31 -241 0 -59 31 -119 101 -145 169
-28 74 -39 239 -20 323 16 75 66 167 108 199 80 61 194 75 291 36z"/>
<path d="M4017 3838 c-61 -80 -111 -182 -139 -283 -18 -68 -21 -107 -21 -265
-1 -160 2 -196 21 -265 35 -126 85 -223 166 -319 l25 -29 63 31 c53 27 138 92
138 106 0 2 -16 28 -35 57 -103 157 -142 424 -90 624 16 60 62 164 107 239
l23 38 -45 40 c-41 38 -131 88 -155 88 -6 0 -32 -28 -58 -62z"/>
<path d="M5115 3871 c-33 -16 -77 -46 -97 -67 l-37 -39 34 -50 c132 -192 158
-517 58 -745 -13 -30 -38 -76 -54 -102 -24 -38 -28 -51 -20 -66 15 -28 101
-89 150 -106 l40 -15 46 57 c54 67 117 193 139 277 59 226 37 500 -54 690 -36
75 -121 195 -138 195 -4 0 -34 -13 -67 -29z"/>
</g>
</svg>
