<?xml version="1.0" standalone="no"?>
<!DOCTYPE svg PUBLIC "-//W3C//DTD SVG 20010904//EN"
 "http://www.w3.org/TR/2001/REC-SVG-20010904/DTD/svg10.dtd">
<svg version="1.0" xmlns="http://www.w3.org/2000/svg"
 width="1024.000000pt" height="1024.000000pt" viewBox="0 0 1024.000000 1024.000000"
 preserveAspectRatio="xMidYMid meet">

<g transform="translate(0.000000,1024.000000) scale(0.100000,-0.100000)"
fill="#1c3f60" stroke="none">
<path d="M4835 8303 c-53 -5 -197 -32 -265 -50 -30 -8 -68 -18 -85 -23 -235
-62 -514 -210 -725 -386 -70 -58 -229 -216 -293 -292 -43 -51 -142 -193 -173
-248 -15 -27 -36 -65 -47 -84 -63 -109 -132 -282 -169 -420 -5 -19 -14 -51
-19 -70 -34 -115 -59 -324 -59 -494 0 -327 68 -610 221 -922 38 -78 69 -154
69 -169 0 -15 -16 -89 -36 -164 -77 -294 -93 -352 -138 -513 -25 -92 -46 -178
-46 -191 0 -13 9 -32 19 -41 23 -21 28 -20 216 31 72 20 186 50 255 68 69 18
188 50 265 71 199 53 189 53 292 1 133 -68 193 -93 305 -131 128 -42 224 -65
353 -85 235 -37 545 -26 760 27 384 96 720 276 975 524 84 82 209 222 237 265
9 15 20 30 23 33 48 46 230 384 230 427 0 13 -10 29 -25 39 -22 14 -35 15 -98
6 -39 -7 -117 -17 -172 -23 -55 -6 -131 -15 -170 -19 -38 -5 -144 -17 -235
-28 l-165 -20 -95 -94 c-52 -52 -130 -120 -173 -152 -95 -70 -297 -176 -335
-176 -7 0 -20 -4 -30 -9 -19 -10 -63 -23 -167 -47 -99 -24 -377 -24 -500 0
-402 77 -743 337 -935 713 -22 43 -40 85 -40 94 0 8 -4 19 -8 25 -10 11 -33
91 -64 224 -20 87 -17 405 5 510 25 117 51 196 97 294 229 483 711 777 1233
753 200 -9 348 -46 516 -128 148 -72 240 -137 360 -253 201 -197 326 -435 372
-716 7 -41 18 -83 24 -92 6 -10 43 -40 81 -68 135 -100 380 -287 468 -357 112
-90 149 -101 173 -51 38 80 43 529 8 703 -29 147 -78 318 -116 410 -281 675
-842 1137 -1549 1274 -135 27 -458 39 -625 24z"/>
<path d="M2947 3413 c-4 -3 -7 -253 -7 -555 l0 -548 110 0 110 0 0 240 c0 252
3 271 49 323 43 50 146 62 202 24 51 -34 57 -76 56 -351 l-2 -236 108 0 107 0
0 268 c-1 329 -7 368 -79 445 -82 87 -269 90 -379 7 -28 -21 -53 -36 -56 -33
-3 4 -6 100 -6 215 l0 208 -103 0 c-57 0 -107 -3 -110 -7z"/>
<path d="M5954 3397 c-3 -8 -4 -52 -2 -98 l3 -84 110 0 110 0 3 98 3 97 -111
0 c-83 0 -112 -3 -116 -13z"/>
<path d="M4995 3294 c-27 -7 -69 -18 -92 -24 l-43 -11 0 -89 0 -89 -67 -3 -68
-3 0 -80 0 -80 66 -3 67 -3 4 -212 c5 -233 13 -270 74 -331 58 -57 92 -67 222
-64 l117 3 0 79 0 80 -55 -2 c-72 -3 -115 22 -129 75 -6 21 -11 113 -11 204
l0 167 131 4 c72 2 145 2 163 0 l33 -4 6 -211 c6 -233 14 -272 73 -331 51 -51
98 -66 211 -66 56 0 108 3 117 6 13 5 16 22 16 85 l0 79 -70 0 c-64 0 -73 3
-95 26 -33 35 -36 62 -33 249 l3 160 95 3 c52 2 97 7 100 11 3 5 4 44 2 86
l-4 77 -71 -3 c-40 -1 -84 -2 -99 -1 l-28 2 0 115 c0 131 3 127 -86 101 -27
-8 -69 -20 -93 -26 l-44 -12 5 -76 c3 -42 3 -83 1 -89 -4 -10 -47 -13 -169
-13 l-164 0 0 115 c0 130 5 124 -85 99z"/>
<path d="M2410 3076 c-174 -48 -280 -190 -280 -378 0 -122 36 -221 107 -293
79 -81 153 -106 301 -106 90 0 118 4 177 26 38 14 73 29 77 33 7 7 -30 124
-47 152 -4 6 -28 -1 -58 -17 -42 -21 -67 -26 -133 -27 -74 -1 -84 1 -117 27
-47 36 -64 69 -78 154 -10 58 -9 77 5 124 21 71 70 124 129 140 53 14 142 4
195 -21 23 -11 45 -20 49 -20 7 0 63 136 63 153 0 11 -65 38 -128 52 -76 18
-200 18 -262 1z"/>
<path d="M4060 3077 c-98 -28 -181 -105 -220 -204 -48 -125 -34 -326 31 -427
67 -106 142 -147 274 -148 99 -1 142 14 209 72 18 17 36 30 40 30 3 0 6 -20 6
-45 l0 -45 105 0 105 0 0 385 0 386 -97 -3 -98 -3 -3 -40 c-5 -58 -16 -62 -57
-22 -20 19 -53 43 -73 53 -47 22 -163 28 -222 11z m228 -165 c40 -12 81 -61
97 -117 23 -79 8 -221 -29 -270 -58 -75 -162 -92 -238 -39 -59 41 -82 92 -87
187 -5 117 29 193 104 231 30 16 110 20 153 8z"/>
<path d="M6538 3076 c-90 -26 -167 -94 -198 -176 -7 -19 -17 -40 -22 -47 -16
-20 -22 -194 -9 -252 25 -119 89 -202 189 -249 48 -22 64 -24 150 -20 105 4
136 15 191 67 18 17 38 31 44 31 14 0 2 -159 -16 -201 -8 -19 -26 -44 -39 -57
-28 -25 -113 -52 -168 -52 -40 0 -168 33 -218 56 -19 9 -35 14 -36 12 -4 -5
-46 -143 -46 -150 0 -7 59 -29 145 -54 81 -24 268 -24 346 0 121 36 204 118
234 231 14 51 15 119 13 460 l-3 400 -95 0 -95 0 -9 -47 c-5 -27 -13 -48 -18
-48 -5 0 -20 12 -33 28 -57 67 -199 99 -307 68z m239 -167 c36 -13 69 -45 88
-83 24 -47 20 -189 -6 -243 -39 -80 -143 -116 -230 -79 -65 27 -98 83 -106
175 -12 145 59 240 179 241 26 0 59 -5 75 -11z"/>
<path d="M7495 3076 c-82 -21 -118 -41 -165 -88 -93 -94 -133 -232 -110 -377
22 -138 81 -222 197 -277 72 -35 79 -36 187 -37 114 -1 138 4 224 46 117 57
186 185 184 343 -1 99 -23 183 -65 247 -35 52 -125 119 -185 138 -57 17 -210
20 -267 5z m239 -199 c43 -47 60 -115 54 -218 -5 -86 -27 -140 -72 -172 -25
-18 -45 -22 -101 -22 -112 0 -156 44 -175 174 -17 120 20 228 91 265 25 12 53
16 101 14 64 -3 70 -6 102 -41z"/>
<path d="M5967 3073 c-4 -3 -7 -177 -7 -385 l0 -378 104 0 c99 0 104 1 110 23
8 29 8 711 0 731 -5 13 -24 16 -103 16 -54 0 -101 -3 -104 -7z"/>
</g>
</svg>
